<svg id="Group_598" data-name="Group 598" xmlns="http://www.w3.org/2000/svg" width="16.14" height="16.14" viewBox="0 0 16.14 16.14">
  <g id="bell-Regular" transform="translate(2.319 1.656)">
    <path id="bell-Regular_1_" d="M217.558,1165.524l-.727-1.278a3.058,3.058,0,0,1-.4-1.512v-1.819a4.438,4.438,0,1,0-8.865,0v1.819a3.065,3.065,0,0,1-.4,1.512l-.727,1.278a1.467,1.467,0,0,0-.017,1.428,1.323,1.323,0,0,0,1.173.721h2.616c-.005.058-.022.114-.022.173a1.81,1.81,0,1,0,3.614,0c0-.059-.016-.115-.022-.173H216.4a1.323,1.323,0,0,0,1.173-.72A1.47,1.47,0,0,0,217.558,1165.524Zm-4.736,2.322a.823.823,0,1,1-1.643,0,.9.9,0,0,1,.022-.173h1.6A.9.9,0,0,1,212.822,1167.846Zm3.9-1.406a.354.354,0,0,1-.315.193h-8.8a.355.355,0,0,1-.315-.193.39.39,0,0,1,0-.383l.727-1.278a4.138,4.138,0,0,0,.538-2.046v-1.819a3.451,3.451,0,1,1,6.894,0v1.819a4.145,4.145,0,0,0,.538,2.046l.727,1.278A.389.389,0,0,1,216.717,1166.441Z" transform="translate(-206.25 -1156.249)" fill="#707070"/>
  </g>
  <path id="Path_3637" data-name="Path 3637" d="M0,0H16.14V16.14H0Z" fill="none"/>
  <g id="Ellipse_27" data-name="Ellipse 27" transform="translate(9.07 1.07)" fill="red" stroke="#f9f9f9" stroke-width="0.5">
    <circle cx="3" cy="3" r="3" stroke="none"/>
    <circle cx="3" cy="3" r="2.75" fill="none"/>
  </g>
</svg>
