<svg id="Layer_2" data-name="Layer 2" xmlns="http://www.w3.org/2000/svg" width="24" height="24" viewBox="0 0 24 24">
  <g id="star">
    <rect id="Rectangle_3697" data-name="Rectangle 3697" width="24" height="24" transform="translate(24) rotate(90)" fill="#5257a2" opacity="0"/>
    <path id="Path_17405" data-name="Path 17405" d="M17.56,21a1,1,0,0,1-.46-.11L12,18.22,6.9,20.89a1,1,0,0,1-1.45-1.06l1-5.63-4.12-4a.985.985,0,0,1,.56-1.68l5.7-.83L11.1,2.56a1,1,0,0,1,1.8,0l2.54,5.12,5.7.83a.985.985,0,0,1,.56,1.68l-4.12,4,1,5.63A.99.99,0,0,1,17.56,21Z" fill="#5257a2"/>
  </g>
</svg>
