<svg xmlns="http://www.w3.org/2000/svg" width="71.262" height="36.01" viewBox="0 0 71.262 36.01">
  <g id="Group_36272" data-name="Group 36272" transform="translate(-395.349 -414.039)" opacity="0.998" style="mix-blend-mode: multiply;isolation: isolate">
    <g id="Group_36255" data-name="Group 36255" transform="translate(431.96 430.506)">
      <path id="Path_18481" data-name="Path 18481" d="M479.832,464.008A16.857,16.857,0,0,1,463,447.171a2.706,2.706,0,0,1,5.412,0,11.425,11.425,0,0,0,22.85,0,2.706,2.706,0,1,1,5.412,0A16.856,16.856,0,0,1,479.832,464.008Z" transform="translate(-462.995 -444.465)" fill="#5bbfee"/>
    </g>
    <g id="Group_36256" data-name="Group 36256" transform="translate(438.685 430.506)">
      <path id="Path_18482" data-name="Path 18482" d="M485.533,457.284a10.124,10.124,0,0,1-10.112-10.113,2.706,2.706,0,0,1,5.412,0,4.7,4.7,0,1,0,9.4,0,2.706,2.706,0,0,1,5.412,0A10.123,10.123,0,0,1,485.533,457.284Z" transform="translate(-475.421 -444.465)" fill="#5bbfee"/>
    </g>
    <g id="Group_36257" data-name="Group 36257" transform="translate(395.349 432.059)">
      <path id="Path_18483" data-name="Path 18483" d="M405.461,464.98a10.124,10.124,0,0,1-10.112-10.112,2.706,2.706,0,1,1,5.412,0,4.7,4.7,0,1,0,9.4,0V450.04a2.706,2.706,0,0,1,5.412,0v4.828A10.124,10.124,0,0,1,405.461,464.98Z" transform="translate(-395.349 -447.334)" fill="#5bbfee"/>
    </g>
    <g id="Group_36258" data-name="Group 36258" transform="translate(417.397 416.309)">
      <path id="Path_18484" data-name="Path 18484" d="M466.782,437.776a2.706,2.706,0,0,1-2.706-2.706,11.426,11.426,0,0,0-22.629-2.244,2.706,2.706,0,1,1-5.309-1.056,16.838,16.838,0,0,1,33.35,3.3A2.706,2.706,0,0,1,466.782,437.776Z" transform="translate(-436.086 -418.234)" fill="#5bbfee"/>
    </g>
    <g id="Group_36259" data-name="Group 36259" transform="translate(423.85 423.033)">
      <path id="Path_18485" data-name="Path 18485" d="M465.527,443.476a2.706,2.706,0,0,1-2.706-2.706,4.7,4.7,0,1,0-9.4,0,2.706,2.706,0,1,1-5.412,0,10.112,10.112,0,1,1,20.224,0A2.706,2.706,0,0,1,465.527,443.476Z" transform="translate(-448.01 -430.658)" fill="#5bbfee"/>
    </g>
    <g id="Group_36260" data-name="Group 36260" transform="translate(412.575 416.913)">
      <path id="Path_18486" data-name="Path 18486" d="M427.178,419.349" transform="translate(-427.178 -419.349)" fill="#5bbfee" stroke="#1a1818" stroke-linecap="round" stroke-width="10"/>
    </g>
    <g id="Group_36261" data-name="Group 36261" transform="translate(459.914 414.062)">
      <circle id="Ellipse_1896" data-name="Ellipse 1896" cx="3.349" cy="3.349" r="3.349" fill="#5bbfee"/>
    </g>
    <g id="Group_36262" data-name="Group 36262" transform="translate(459.945 422.266)">
      <circle id="Ellipse_1897" data-name="Ellipse 1897" cx="3.318" cy="3.318" r="3.318" fill="#5bbfee"/>
    </g>
    <g id="Group_36263" data-name="Group 36263" transform="translate(410.16 414.039)">
      <path id="Path_18487" data-name="Path 18487" d="M428.924,449.705a6.215,6.215,0,0,1-6.208-6.207V416.913a2.706,2.706,0,0,1,5.412,0V443.5a.8.8,0,0,0,1.591,0V416.745a2.706,2.706,0,0,1,5.412,0V443.5A6.215,6.215,0,0,1,428.924,449.705Z" transform="translate(-422.716 -414.039)" fill="#5bbfee"/>
    </g>
  </g>
</svg>
