<svg xmlns="http://www.w3.org/2000/svg" width="24" height="24" viewBox="0 0 24 24">
  <g id="send" transform="translate(0 0)">
    <path id="Path_16833" data-name="Path 16833" d="M23.794.206a.7.7,0,0,0-.7-.176L1.585,6.483a2.211,2.211,0,0,0,.01,4.244l9.084,2.6,2.6,9.084a2.211,2.211,0,0,0,4.244.01L23.97.905a.7.7,0,0,0-.176-.7ZM1.406,8.613a.812.812,0,0,1,.583-.783L20.828,2.178l-9.785,9.785L1.981,9.375a.8.8,0,0,1-.574-.762Zm14.764,13.4a.812.812,0,0,1-.783.583.8.8,0,0,1-.761-.574l-2.589-9.062,9.785-9.785Z" transform="translate(0 0)" fill="#5bbfee"/>
  </g>
</svg>
