<svg xmlns="http://www.w3.org/2000/svg" width="13.2" height="13.2" viewBox="0 0 13.2 13.2">
  <path id="shopping-basket-Regular_1_" d="M499,1164.88v2.031a.508.508,0,0,1-1.015,0v-2.031a.508.508,0,1,1,1.015,0Zm2.2-.508a.508.508,0,0,0-.508.508v2.031a.508.508,0,0,0,1.015,0v-2.031A.508.508,0,0,0,501.2,1164.373Zm4.195-1.209-.519,4.068a2.543,2.543,0,0,1-2.518,2.217h-5.008a2.545,2.545,0,0,1-2.517-2.209l-.535-4.076a1.857,1.857,0,0,1,.809-3.53h1.067l1.882-3.138a.508.508,0,0,1,.87.523l-1.57,2.616h4.976l-1.57-2.616a.508.508,0,0,1,.87-.523l1.882,3.138h1.068a1.857,1.857,0,0,1,.81,3.53Zm-1.049.194h-9l.492,3.751a1.527,1.527,0,0,0,1.51,1.325h5.008a1.525,1.525,0,0,0,1.51-1.33Zm1.084-1.861a.847.847,0,0,0-.846-.846h-9.477a.846.846,0,1,0,0,1.692h9.477A.847.847,0,0,0,505.434,1161.5Z" transform="translate(-493.249 -1156.249)" fill="#fff"/>
</svg>
