<svg xmlns="http://www.w3.org/2000/svg" width="14.626" height="14.625" viewBox="0 0 14.626 14.625">
  <path id="shopping-basket-Regular_1_" d="M499.625,1165.812v2.25a.563.563,0,0,1-1.125,0v-2.25a.563.563,0,0,1,1.125,0Zm2.438-.562a.563.563,0,0,0-.562.563v2.25a.563.563,0,0,0,1.125,0v-2.25A.563.563,0,0,0,502.062,1165.25Zm4.648-1.34-.575,4.508a2.818,2.818,0,0,1-2.79,2.456H497.8a2.82,2.82,0,0,1-2.788-2.447l-.592-4.516a2.057,2.057,0,0,1,.9-3.911h1.182l2.086-3.477a.562.562,0,0,1,.964.579L497.8,1160h5.513l-1.739-2.9a.562.562,0,0,1,.964-.579l2.086,3.477h1.184a2.057,2.057,0,0,1,.9,3.911Zm-1.162.215h-9.97l.545,4.156a1.692,1.692,0,0,0,1.673,1.469h5.549a1.69,1.69,0,0,0,1.673-1.474Zm1.2-2.062a.939.939,0,0,0-.937-.937h-10.5a.938.938,0,0,0,0,1.875h10.5A.939.939,0,0,0,506.75,1162.062Z" transform="translate(-493.249 -1156.249)" fill="#707070"/>
</svg>
