<svg xmlns="http://www.w3.org/2000/svg" width="19.226" height="20" viewBox="0 0 19.226 20">
  <g id="suits" transform="translate(-5.572 -6.667)">
    <g id="XMLID_3960_" transform="translate(5.572 6.667)">
      <path id="XMLID_15_" d="M23.4,35.109a.429.429,0,0,1-.356-.189L20.12,30.566a.429.429,0,0,1-.064-.324l1.533-7.589.84.17-1.5,7.414L23.4,33.911l2.469-3.675-1.5-7.414a.43.43,0,0,1,.045-.292l.6-1.09.751.414-.525.953,1.5,7.435a.429.429,0,0,1-.064.324l-2.925,4.353a.427.427,0,0,1-.355.19Z" transform="translate(-13.843 -15.109)" fill="#5bbfee"/>
      <path id="XMLID_14_" d="M24.738,23.133H23.346a.429.429,0,0,1-.369-.21l-.53-.894a.429.429,0,1,1,.738-.437l.405.684h1.147a.428.428,0,1,1,0,.857Z" transform="translate(-15.181 -15.076)" fill="#5bbfee"/>
      <path id="XMLID_13_" d="M27.3,46.386a.429.429,0,0,1-.355-.668l2.925-4.353a.429.429,0,0,1,.711.478L27.655,46.2a.429.429,0,0,1-.356.189Z" transform="translate(-17.742 -26.386)" fill="#5bbfee"/>
      <path id="XMLID_12_" d="M23.725,41.408a.429.429,0,0,1-.356-.667l2.418-3.617a.429.429,0,0,1,.712.477l-2.418,3.617a.428.428,0,0,1-.357.19Z" transform="translate(-15.7 -23.962)" fill="#5bbfee"/>
      <path id="XMLID_11_" d="M25.45,30.374a.429.429,0,0,1-.357-.665l2.288-3.462a.429.429,0,1,1,.715.473l-2.288,3.463A.428.428,0,0,1,25.45,30.374Z" transform="translate(-16.686 -17.745)" fill="#5bbfee"/>
      <path id="XMLID_8_" d="M16.071,14.728h-.034a.429.429,0,0,1-.332-.2l-3.24-5.309a.428.428,0,0,1,.067-.53l1.944-1.894a.428.428,0,0,1,.64.048c.275.273,2.732,2.334,4.245,3.594a.428.428,0,0,1,.052.607L16.4,14.578A.43.43,0,0,1,16.071,14.728Zm-2.7-5.669,2.754,4.512,2.351-2.759C16.3,9,15.267,8.135,14.781,7.688Z" transform="translate(-9.474 -6.667)" fill="#5bbfee"/>
      <path id="XMLID_5_" d="M30.444,14.728a.427.427,0,0,1-.326-.151L27.1,11.038a.428.428,0,0,1,.052-.607c1.513-1.26,3.97-3.321,4.245-3.594a.429.429,0,0,1,.641-.048l1.944,1.894a.429.429,0,0,1,.066.53l-3.24,5.309a.429.429,0,0,1-.332.2Zm-2.409-3.916,2.351,2.759,2.754-4.512L31.734,7.688C31.248,8.134,30.218,9,28.035,10.812Z" transform="translate(-17.816 -6.667)" fill="#5bbfee"/>
      <path id="XMLID_4_" d="M25.991,7.524H17.367a.429.429,0,0,1,0-.857h8.624a.429.429,0,0,1,0,.857Z" transform="translate(-12.067 -6.667)" fill="#5bbfee"/>
      <path id="XMLID_3_" d="M11.435,26.708H8.923a1.232,1.232,0,0,1-1.214-1.056L5.586,13.289a1.207,1.207,0,0,1,.928-1.372L8.7,11.181a.429.429,0,1,1,.274.812L6.8,12.726c-.4.146-.381.31-.364.431L8.556,25.52a.374.374,0,0,0,.368.33h2.512a.429.429,0,1,1,0,.857Z" transform="translate(-5.572 -9.234)" fill="#5bbfee"/>
      <path id="XMLID_2_" d="M38.687,26.7H36.176a.429.429,0,1,1,0-.857h2.512a.371.371,0,0,0,.366-.318L41.18,13.134c.015-.107.038-.272-.375-.42l-2.189-.737a.429.429,0,0,1,.274-.812l2.2.74a1.207,1.207,0,0,1,.939,1.362L39.9,25.655A1.229,1.229,0,0,1,38.687,26.7Z" transform="translate(-22.815 -9.224)" fill="#5bbfee"/>
    </g>
  </g>
</svg>
