<svg xmlns="http://www.w3.org/2000/svg" width="15.497" height="15.5" viewBox="0 0 15.497 15.5">
  <g id="write" transform="translate(-31.999 -32)">
    <path id="Path_16832" data-name="Path 16832" d="M47.329,38.036a7.584,7.584,0,0,0-2.67-4.313A7.869,7.869,0,0,0,39.74,32,7.772,7.772,0,0,0,34.2,34.286,7.483,7.483,0,0,0,33.23,43.7l.017.028a.651.651,0,0,1,.055.08.853.853,0,0,1,.066.142l-.664,2.4a1.227,1.227,0,0,0-.042.225v.045a.886.886,0,0,0,.882.889h.031l.031,0a1.156,1.156,0,0,0,.3-.076l2.335-.841.028-.01a.5.5,0,0,1,.2-.042.485.485,0,0,1,.187.035c.021.01.553.214,1.1.367a9.1,9.1,0,0,0,2.1.311A7.612,7.612,0,0,0,47.5,39.6a7.377,7.377,0,0,0-.166-1.56Zm-7.465,8.091a7.859,7.859,0,0,1-1.806-.27c-.5-.138-.982-.325-1-.332a1.6,1.6,0,0,0-.581-.107,1.645,1.645,0,0,0-.619.121l-1.975.713.571-2.065v0a1.237,1.237,0,0,0-.19-.934l-.007-.01c-.035-.055-.069-.111-.107-.163a6.381,6.381,0,0,1,.83-8.008,6.71,6.71,0,0,1,11.27,3.2,6.315,6.315,0,0,1,.142,1.325A6.535,6.535,0,0,1,39.865,46.127Z" transform="translate(0)" fill="#747474"/>
  </g>
</svg>
